<mxfile host="65bd71144e">
    <diagram id="Bs-xDcyCsP2_BQcE8Ya1" name="code diagram">
        <mxGraphModel dx="1091" dy="796" grid="0" gridSize="10" guides="0" tooltips="0" connect="1" arrows="1" fold="1" page="0" pageScale="1" pageWidth="4681" pageHeight="3300" background="#FFFFFF" math="0" shadow="0">
            <root>
                <mxCell id="0"/>
                <mxCell id="1" parent="0"/>
                <mxCell id="100" value="Listener" style="swimlane;fontStyle=1;childLayout=stackLayout;horizontal=1;startSize=30;horizontalStack=0;resizeParent=1;resizeParentMax=0;resizeLast=0;collapsible=1;marginBottom=0;fontSize=28;verticalAlign=middle;" parent="1" vertex="1">
                    <mxGeometry x="120" y="610" width="430" height="270" as="geometry"/>
                </mxCell>
                <mxCell id="104" value="checkEvent()" style="swimlane;fontStyle=0;childLayout=stackLayout;horizontal=1;startSize=30;horizontalStack=0;resizeParent=1;resizeParentMax=0;resizeLast=0;collapsible=1;marginBottom=0;fontSize=25;" parent="100" vertex="1">
                    <mxGeometry y="30" width="430" height="240" as="geometry">
                        <mxRectangle y="30" width="430" height="30" as="alternateBounds"/>
                    </mxGeometry>
                </mxCell>
                <mxCell id="105" value="updateEvent(&quot;THupdate&quot;);" style="text;strokeColor=none;fillColor=none;align=left;verticalAlign=middle;spacingLeft=4;spacingRight=4;overflow=hidden;points=[[0,0.5],[1,0.5]];portConstraint=eastwest;rotatable=0;fontSize=28;" parent="104" vertex="1">
                    <mxGeometry y="30" width="430" height="30" as="geometry"/>
                </mxCell>
                <mxCell id="115" value="updateEvent(&quot;SonicUpdate&quot;);" style="text;strokeColor=none;fillColor=none;align=left;verticalAlign=middle;spacingLeft=4;spacingRight=4;overflow=hidden;points=[[0,0.5],[1,0.5]];portConstraint=eastwest;rotatable=0;fontSize=28;" parent="104" vertex="1">
                    <mxGeometry y="60" width="430" height="30" as="geometry"/>
                </mxCell>
                <mxCell id="106" value="updateEvent(&quot;ledButton&quot;);" style="text;strokeColor=none;fillColor=none;align=left;verticalAlign=middle;spacingLeft=4;spacingRight=4;overflow=hidden;points=[[0,0.5],[1,0.5]];portConstraint=eastwest;rotatable=0;fontSize=28;" parent="104" vertex="1">
                    <mxGeometry y="90" width="430" height="30" as="geometry"/>
                </mxCell>
                <mxCell id="107" value="updateEvent(&quot;powerButton&quot;);" style="text;strokeColor=none;fillColor=none;align=left;verticalAlign=middle;spacingLeft=4;spacingRight=4;overflow=hidden;points=[[0,0.5],[1,0.5]];portConstraint=eastwest;rotatable=0;fontSize=28;" parent="104" vertex="1">
                    <mxGeometry y="120" width="430" height="30" as="geometry"/>
                </mxCell>
                <mxCell id="114" value="updateEvent(&quot;motorButton&quot;);" style="text;strokeColor=none;fillColor=none;align=left;verticalAlign=middle;spacingLeft=4;spacingRight=4;overflow=hidden;points=[[0,0.5],[1,0.5]];portConstraint=eastwest;rotatable=0;fontSize=28;" parent="104" vertex="1">
                    <mxGeometry y="150" width="430" height="30" as="geometry"/>
                </mxCell>
                <mxCell id="135" value="updateEvent(&quot;counterButton&quot;);&#10;" style="text;strokeColor=none;fillColor=none;align=left;verticalAlign=middle;spacingLeft=4;spacingRight=4;overflow=hidden;points=[[0,0.5],[1,0.5]];portConstraint=eastwest;rotatable=0;fontSize=28;" parent="104" vertex="1">
                    <mxGeometry y="180" width="430" height="30" as="geometry"/>
                </mxCell>
                <mxCell id="113" value="updateEvent(&quot;clockupdate&quot;);" style="text;strokeColor=none;fillColor=none;align=left;verticalAlign=middle;spacingLeft=4;spacingRight=4;overflow=hidden;points=[[0,0.5],[1,0.5]];portConstraint=eastwest;rotatable=0;fontSize=28;" parent="104" vertex="1">
                    <mxGeometry y="210" width="430" height="30" as="geometry"/>
                </mxCell>
                <mxCell id="126" value="Controller" style="swimlane;fontStyle=1;childLayout=stackLayout;horizontal=1;startSize=30;horizontalStack=0;resizeParent=1;resizeParentMax=0;resizeLast=0;collapsible=1;marginBottom=0;fontSize=28;verticalAlign=middle;" parent="1" vertex="1">
                    <mxGeometry x="650" y="615" width="650" height="270" as="geometry"/>
                </mxCell>
                <mxCell id="127" value="updateEvent()" style="swimlane;fontStyle=0;childLayout=stackLayout;horizontal=1;startSize=30;horizontalStack=0;resizeParent=1;resizeParentMax=0;resizeLast=0;collapsible=1;marginBottom=0;fontSize=25;" parent="126" vertex="1">
                    <mxGeometry y="30" width="650" height="240" as="geometry">
                        <mxRectangle y="30" width="430" height="30" as="alternateBounds"/>
                    </mxGeometry>
                </mxCell>
                <mxCell id="128" value="TH_servicer-&gt;updateTH(dht_data);" style="text;strokeColor=none;fillColor=none;align=left;verticalAlign=middle;spacingLeft=4;spacingRight=4;overflow=hidden;points=[[0,0.5],[1,0.5]];portConstraint=eastwest;rotatable=0;fontSize=28;" parent="127" vertex="1">
                    <mxGeometry y="30" width="650" height="30" as="geometry"/>
                </mxCell>
                <mxCell id="129" value="Sonic_servicer-&gt;updateSonic();" style="text;strokeColor=none;fillColor=none;align=left;verticalAlign=middle;spacingLeft=4;spacingRight=4;overflow=hidden;points=[[0,0.5],[1,0.5]];portConstraint=eastwest;rotatable=0;fontSize=28;" parent="127" vertex="1">
                    <mxGeometry y="60" width="650" height="30" as="geometry"/>
                </mxCell>
                <mxCell id="130" value="service-&gt;updateservice(&quot;ServiceOn&quot;);" style="text;strokeColor=none;fillColor=none;align=left;verticalAlign=middle;spacingLeft=4;spacingRight=4;overflow=hidden;points=[[0,0.5],[1,0.5]];portConstraint=eastwest;rotatable=0;fontSize=28;" parent="127" vertex="1">
                    <mxGeometry y="90" width="650" height="30" as="geometry"/>
                </mxCell>
                <mxCell id="131" value="Clock_servicer-&gt;updatePower();" style="text;strokeColor=none;fillColor=none;align=left;verticalAlign=middle;spacingLeft=4;spacingRight=4;overflow=hidden;points=[[0,0.5],[1,0.5]];portConstraint=eastwest;rotatable=0;fontSize=28;" parent="127" vertex="1">
                    <mxGeometry y="120" width="650" height="30" as="geometry"/>
                </mxCell>
                <mxCell id="132" value="Motor_servicer-&gt;updateMotor(&quot;motor_on&quot;);" style="text;strokeColor=none;fillColor=none;align=left;verticalAlign=middle;spacingLeft=4;spacingRight=4;overflow=hidden;points=[[0,0.5],[1,0.5]];portConstraint=eastwest;rotatable=0;fontSize=28;" parent="127" vertex="1">
                    <mxGeometry y="150" width="650" height="30" as="geometry"/>
                </mxCell>
                <mxCell id="136" value="Clock_servicer-&gt;updateClock(&quot;timerclock&quot;);" style="text;strokeColor=none;fillColor=none;align=left;verticalAlign=middle;spacingLeft=4;spacingRight=4;overflow=hidden;points=[[0,0.5],[1,0.5]];portConstraint=eastwest;rotatable=0;fontSize=28;" parent="127" vertex="1">
                    <mxGeometry y="180" width="650" height="30" as="geometry"/>
                </mxCell>
                <mxCell id="133" value="Clock_servicer-&gt;updateClock(&quot;counterup&quot;);" style="text;strokeColor=none;fillColor=none;align=left;verticalAlign=middle;spacingLeft=4;spacingRight=4;overflow=hidden;points=[[0,0.5],[1,0.5]];portConstraint=eastwest;rotatable=0;fontSize=28;" parent="127" vertex="1">
                    <mxGeometry y="210" width="650" height="30" as="geometry"/>
                </mxCell>
                <mxCell id="137" value="Servicer" style="swimlane;fontStyle=1;childLayout=stackLayout;horizontal=1;startSize=30;horizontalStack=0;resizeParent=1;resizeParentMax=0;resizeLast=0;collapsible=1;marginBottom=0;fontSize=28;verticalAlign=middle;" parent="1" vertex="1">
                    <mxGeometry x="690" y="150" width="570" height="270" as="geometry"/>
                </mxCell>
                <mxCell id="138" value="updateView()" style="swimlane;fontStyle=0;childLayout=stackLayout;horizontal=1;startSize=30;horizontalStack=0;resizeParent=1;resizeParentMax=0;resizeLast=0;collapsible=1;marginBottom=0;fontSize=25;" parent="137" vertex="1">
                    <mxGeometry y="30" width="570" height="240" as="geometry">
                        <mxRectangle y="30" width="430" height="30" as="alternateBounds"/>
                    </mxGeometry>
                </mxCell>
                <mxCell id="139" value="th_viewer-&gt;updateView();" style="text;strokeColor=none;fillColor=none;align=left;verticalAlign=middle;spacingLeft=4;spacingRight=4;overflow=hidden;points=[[0,0.5],[1,0.5]];portConstraint=eastwest;rotatable=0;fontSize=28;" parent="138" vertex="1">
                    <mxGeometry y="30" width="570" height="30" as="geometry"/>
                </mxCell>
                <mxCell id="140" value="Sonic_Viewer-&gt;lcd_on();&#10;" style="text;strokeColor=none;fillColor=none;align=left;verticalAlign=middle;spacingLeft=4;spacingRight=4;overflow=hidden;points=[[0,0.5],[1,0.5]];portConstraint=eastwest;rotatable=0;fontSize=28;" parent="138" vertex="1">
                    <mxGeometry y="60" width="570" height="30" as="geometry"/>
                </mxCell>
                <mxCell id="141" value="viewer-&gt;UpdateView(&quot;ViewOn&quot;);" style="text;strokeColor=none;fillColor=none;align=left;verticalAlign=middle;spacingLeft=4;spacingRight=4;overflow=hidden;points=[[0,0.5],[1,0.5]];portConstraint=eastwest;rotatable=0;fontSize=28;" parent="138" vertex="1">
                    <mxGeometry y="90" width="570" height="30" as="geometry"/>
                </mxCell>
                <mxCell id="142" value="clkviewer-&gt;on_lcd();" style="text;strokeColor=none;fillColor=none;align=left;verticalAlign=middle;spacingLeft=4;spacingRight=4;overflow=hidden;points=[[0,0.5],[1,0.5]];portConstraint=eastwest;rotatable=0;fontSize=28;" parent="138" vertex="1">
                    <mxGeometry y="120" width="570" height="30" as="geometry"/>
                </mxCell>
                <mxCell id="143" value="Motor_viewer-&gt;UpdateView(&quot;motor_on&quot;);" style="text;strokeColor=none;fillColor=none;align=left;verticalAlign=middle;spacingLeft=4;spacingRight=4;overflow=hidden;points=[[0,0.5],[1,0.5]];portConstraint=eastwest;rotatable=0;fontSize=28;" parent="138" vertex="1">
                    <mxGeometry y="150" width="570" height="30" as="geometry"/>
                </mxCell>
                <mxCell id="144" value="clkviewer-&gt;updateTime();" style="text;strokeColor=none;fillColor=none;align=left;verticalAlign=middle;spacingLeft=4;spacingRight=4;overflow=hidden;points=[[0,0.5],[1,0.5]];portConstraint=eastwest;rotatable=0;fontSize=28;" parent="138" vertex="1">
                    <mxGeometry y="180" width="570" height="30" as="geometry"/>
                </mxCell>
                <mxCell id="145" value="clkviewer-&gt;updateTime();" style="text;strokeColor=none;fillColor=none;align=left;verticalAlign=middle;spacingLeft=4;spacingRight=4;overflow=hidden;points=[[0,0.5],[1,0.5]];portConstraint=eastwest;rotatable=0;fontSize=28;" parent="138" vertex="1">
                    <mxGeometry y="210" width="570" height="30" as="geometry"/>
                </mxCell>
                <mxCell id="4Xo2bMUcnUVNEwbz_BZO-145" style="edgeStyle=none;html=1;exitX=1;exitY=0.5;exitDx=0;exitDy=0;fontSize=28;" parent="1" source="106" target="130" edge="1">
                    <mxGeometry relative="1" as="geometry"/>
                </mxCell>
                <mxCell id="4Xo2bMUcnUVNEwbz_BZO-146" style="edgeStyle=none;html=1;fontSize=28;" parent="1" source="126" target="138" edge="1">
                    <mxGeometry relative="1" as="geometry"/>
                </mxCell>
                <mxCell id="4Xo2bMUcnUVNEwbz_BZO-149" style="edgeStyle=orthogonalEdgeStyle;html=1;exitX=1;exitY=0.5;exitDx=0;exitDy=0;fontSize=28;entryX=0.5;entryY=0;entryDx=0;entryDy=0;" parent="1" source="142" target="4Xo2bMUcnUVNEwbz_BZO-150" edge="1">
                    <mxGeometry relative="1" as="geometry">
                        <mxPoint x="1750" y="620" as="targetPoint"/>
                    </mxGeometry>
                </mxCell>
                <mxCell id="4Xo2bMUcnUVNEwbz_BZO-150" value="Viewer" style="swimlane;fontStyle=1;childLayout=stackLayout;horizontal=1;startSize=30;horizontalStack=0;resizeParent=1;resizeParentMax=0;resizeLast=0;collapsible=1;marginBottom=0;fontSize=28;verticalAlign=middle;" parent="1" vertex="1">
                    <mxGeometry x="1338" y="614" width="425" height="270" as="geometry"/>
                </mxCell>
                <mxCell id="4Xo2bMUcnUVNEwbz_BZO-151" value="updateView()" style="swimlane;fontStyle=0;childLayout=stackLayout;horizontal=1;startSize=30;horizontalStack=0;resizeParent=1;resizeParentMax=0;resizeLast=0;collapsible=1;marginBottom=0;fontSize=25;" parent="4Xo2bMUcnUVNEwbz_BZO-150" vertex="1">
                    <mxGeometry y="30" width="425" height="240" as="geometry">
                        <mxRectangle y="30" width="430" height="30" as="alternateBounds"/>
                    </mxGeometry>
                </mxCell>
                <mxCell id="4Xo2bMUcnUVNEwbz_BZO-152" value="lcd-&gt;WriteStringXY(0, 0,string);" style="text;strokeColor=none;fillColor=none;align=left;verticalAlign=middle;spacingLeft=4;spacingRight=4;overflow=hidden;points=[[0,0.5],[1,0.5]];portConstraint=eastwest;rotatable=0;fontSize=28;" parent="4Xo2bMUcnUVNEwbz_BZO-151" vertex="1">
                    <mxGeometry y="30" width="425" height="30" as="geometry"/>
                </mxCell>
                <mxCell id="4Xo2bMUcnUVNEwbz_BZO-153" value="Sonic_Viewer-&gt;lcd_on();&#10;" style="text;strokeColor=none;fillColor=none;align=left;verticalAlign=middle;spacingLeft=4;spacingRight=4;overflow=hidden;points=[[0,0.5],[1,0.5]];portConstraint=eastwest;rotatable=0;fontSize=28;" parent="4Xo2bMUcnUVNEwbz_BZO-151" vertex="1">
                    <mxGeometry y="60" width="425" height="30" as="geometry"/>
                </mxCell>
                <mxCell id="4Xo2bMUcnUVNEwbz_BZO-154" value="viewer-&gt;UpdateView(&quot;ViewOn&quot;);" style="text;strokeColor=none;fillColor=none;align=left;verticalAlign=middle;spacingLeft=4;spacingRight=4;overflow=hidden;points=[[0,0.5],[1,0.5]];portConstraint=eastwest;rotatable=0;fontSize=28;" parent="4Xo2bMUcnUVNEwbz_BZO-151" vertex="1">
                    <mxGeometry y="90" width="425" height="30" as="geometry"/>
                </mxCell>
                <mxCell id="4Xo2bMUcnUVNEwbz_BZO-155" value="clkviewer-&gt;on_lcd();" style="text;strokeColor=none;fillColor=none;align=left;verticalAlign=middle;spacingLeft=4;spacingRight=4;overflow=hidden;points=[[0,0.5],[1,0.5]];portConstraint=eastwest;rotatable=0;fontSize=28;" parent="4Xo2bMUcnUVNEwbz_BZO-151" vertex="1">
                    <mxGeometry y="120" width="425" height="30" as="geometry"/>
                </mxCell>
                <mxCell id="4Xo2bMUcnUVNEwbz_BZO-156" value="pwmer-&gt;motor_off();" style="text;strokeColor=none;fillColor=none;align=left;verticalAlign=middle;spacingLeft=4;spacingRight=4;overflow=hidden;points=[[0,0.5],[1,0.5]];portConstraint=eastwest;rotatable=0;fontSize=28;" parent="4Xo2bMUcnUVNEwbz_BZO-151" vertex="1">
                    <mxGeometry y="150" width="425" height="30" as="geometry"/>
                </mxCell>
                <mxCell id="4Xo2bMUcnUVNEwbz_BZO-157" value="lcd-&gt;WriteStringXY(0, 0,string);" style="text;strokeColor=none;fillColor=none;align=left;verticalAlign=middle;spacingLeft=4;spacingRight=4;overflow=hidden;points=[[0,0.5],[1,0.5]];portConstraint=eastwest;rotatable=0;fontSize=28;" parent="4Xo2bMUcnUVNEwbz_BZO-151" vertex="1">
                    <mxGeometry y="180" width="425" height="30" as="geometry"/>
                </mxCell>
                <mxCell id="4Xo2bMUcnUVNEwbz_BZO-158" value="lcd-&gt;WriteStringXY(0, 0,string);" style="text;strokeColor=none;fillColor=none;align=left;verticalAlign=middle;spacingLeft=4;spacingRight=4;overflow=hidden;points=[[0,0.5],[1,0.5]];portConstraint=eastwest;rotatable=0;fontSize=28;" parent="4Xo2bMUcnUVNEwbz_BZO-151" vertex="1">
                    <mxGeometry y="210" width="425" height="30" as="geometry"/>
                </mxCell>
            </root>
        </mxGraphModel>
    </diagram>
    <diagram name="Main" id="CD9EJLtGibNrAfcgMRr-">
        <mxGraphModel dx="522" dy="381" grid="0" gridSize="10" guides="1" tooltips="1" connect="1" arrows="1" fold="1" page="1" pageScale="1" pageWidth="827" pageHeight="1169" background="#FFFFFF" math="0" shadow="0">
            <root>
                <mxCell id="V3qcS_R1Ii-6UE6DMm6K-0"/>
                <mxCell id="V3qcS_R1Ii-6UE6DMm6K-1" parent="V3qcS_R1Ii-6UE6DMm6K-0"/>
                <mxCell id="NmEzGCYF4zkgjlNW1z2w-0" value="DHT11" style="rounded=0;whiteSpace=wrap;html=1;" parent="V3qcS_R1Ii-6UE6DMm6K-1" vertex="1">
                    <mxGeometry x="36" y="800" width="50" height="40" as="geometry"/>
                </mxCell>
                <mxCell id="NmEzGCYF4zkgjlNW1z2w-1" style="edgeStyle=orthogonalEdgeStyle;rounded=0;jumpStyle=none;html=1;exitX=0.5;exitY=1;exitDx=0;exitDy=0;startArrow=none;startFill=0;endArrow=none;endFill=0;strokeColor=default;strokeWidth=1;" parent="V3qcS_R1Ii-6UE6DMm6K-1" edge="1">
                    <mxGeometry relative="1" as="geometry">
                        <mxPoint x="126" y="930" as="targetPoint"/>
                        <mxPoint x="126" y="840" as="sourcePoint"/>
                    </mxGeometry>
                </mxCell>
                <mxCell id="NmEzGCYF4zkgjlNW1z2w-2" value="Button" style="rounded=0;whiteSpace=wrap;html=1;" parent="V3qcS_R1Ii-6UE6DMm6K-1" vertex="1">
                    <mxGeometry x="100" y="800" width="50" height="40" as="geometry"/>
                </mxCell>
                <mxCell id="NmEzGCYF4zkgjlNW1z2w-7" style="edgeStyle=orthogonalEdgeStyle;rounded=0;jumpStyle=none;html=1;exitX=0.5;exitY=0;exitDx=0;exitDy=0;startArrow=none;startFill=0;endArrow=classic;endFill=1;strokeColor=default;strokeWidth=1;" parent="V3qcS_R1Ii-6UE6DMm6K-1" target="158Rcfe5oIILvhh3xk90-0" edge="1">
                    <mxGeometry relative="1" as="geometry">
                        <Array as="points">
                            <mxPoint x="180" y="680"/>
                        </Array>
                        <mxPoint x="176" y="680" as="sourcePoint"/>
                        <mxPoint x="175.91999999999985" y="631.56" as="targetPoint"/>
                    </mxGeometry>
                </mxCell>
                <mxCell id="NmEzGCYF4zkgjlNW1z2w-10" value="Clock&lt;br&gt;Checker" style="rounded=0;whiteSpace=wrap;html=1;" parent="V3qcS_R1Ii-6UE6DMm6K-1" vertex="1">
                    <mxGeometry x="162" y="800" width="70" height="40" as="geometry"/>
                </mxCell>
                <mxCell id="NmEzGCYF4zkgjlNW1z2w-11" value="UltraSonic" style="rounded=0;whiteSpace=wrap;html=1;" parent="V3qcS_R1Ii-6UE6DMm6K-1" vertex="1">
                    <mxGeometry x="240" y="800" width="70" height="40" as="geometry"/>
                </mxCell>
                <mxCell id="NmEzGCYF4zkgjlNW1z2w-12" style="edgeStyle=orthogonalEdgeStyle;rounded=0;jumpStyle=none;html=1;exitX=1;exitY=0.5;exitDx=0;exitDy=0;startArrow=none;startFill=0;endArrow=none;endFill=0;strokeColor=default;strokeWidth=1;" parent="V3qcS_R1Ii-6UE6DMm6K-1" source="NmEzGCYF4zkgjlNW1z2w-13" edge="1">
                    <mxGeometry relative="1" as="geometry">
                        <mxPoint x="126" y="880" as="targetPoint"/>
                    </mxGeometry>
                </mxCell>
                <mxCell id="NmEzGCYF4zkgjlNW1z2w-13" value="Led_Button" style="rounded=0;whiteSpace=wrap;html=1;" parent="V3qcS_R1Ii-6UE6DMm6K-1" vertex="1">
                    <mxGeometry x="26" y="860" width="80" height="40" as="geometry"/>
                </mxCell>
                <mxCell id="nUl7GOcgF2RR15ybSp7t-2" style="edgeStyle=none;rounded=0;html=1;exitX=0;exitY=0.5;exitDx=0;exitDy=0;fontSize=32;endArrow=none;endFill=0;" parent="V3qcS_R1Ii-6UE6DMm6K-1" source="NmEzGCYF4zkgjlNW1z2w-15" edge="1">
                    <mxGeometry relative="1" as="geometry">
                        <mxPoint x="126" y="879.848484848485" as="targetPoint"/>
                    </mxGeometry>
                </mxCell>
                <mxCell id="NmEzGCYF4zkgjlNW1z2w-15" value="POWER_Button&lt;br&gt;(LCD_Button)" style="rounded=0;whiteSpace=wrap;html=1;" parent="V3qcS_R1Ii-6UE6DMm6K-1" vertex="1">
                    <mxGeometry x="137" y="860" width="120" height="40" as="geometry"/>
                </mxCell>
                <mxCell id="nUl7GOcgF2RR15ybSp7t-0" style="edgeStyle=none;rounded=0;html=1;exitX=1;exitY=0.5;exitDx=0;exitDy=0;fontSize=32;endArrow=none;endFill=0;" parent="V3qcS_R1Ii-6UE6DMm6K-1" source="NmEzGCYF4zkgjlNW1z2w-17" edge="1">
                    <mxGeometry relative="1" as="geometry">
                        <mxPoint x="126" y="930.1515151515152" as="targetPoint"/>
                    </mxGeometry>
                </mxCell>
                <mxCell id="NmEzGCYF4zkgjlNW1z2w-17" value="Counter_Button" style="rounded=0;whiteSpace=wrap;html=1;" parent="V3qcS_R1Ii-6UE6DMm6K-1" vertex="1">
                    <mxGeometry x="10" y="910" width="100" height="40" as="geometry"/>
                </mxCell>
                <mxCell id="nUl7GOcgF2RR15ybSp7t-1" style="edgeStyle=none;rounded=0;html=1;exitX=0;exitY=0.5;exitDx=0;exitDy=0;fontSize=32;endArrow=none;endFill=0;" parent="V3qcS_R1Ii-6UE6DMm6K-1" source="NmEzGCYF4zkgjlNW1z2w-19" edge="1">
                    <mxGeometry relative="1" as="geometry">
                        <mxPoint x="126" y="930.1515151515152" as="targetPoint"/>
                    </mxGeometry>
                </mxCell>
                <mxCell id="NmEzGCYF4zkgjlNW1z2w-19" value="Motor_Button" style="rounded=0;whiteSpace=wrap;html=1;" parent="V3qcS_R1Ii-6UE6DMm6K-1" vertex="1">
                    <mxGeometry x="137" y="910" width="80" height="40" as="geometry"/>
                </mxCell>
                <mxCell id="NmEzGCYF4zkgjlNW1z2w-20" style="edgeStyle=orthogonalEdgeStyle;rounded=0;jumpStyle=none;html=1;entryX=0;entryY=0.645;entryDx=0;entryDy=0;startArrow=none;startFill=0;endArrow=classic;endFill=1;strokeColor=default;strokeWidth=1;entryPerimeter=0;" parent="V3qcS_R1Ii-6UE6DMm6K-1" source="158Rcfe5oIILvhh3xk90-0" edge="1">
                    <mxGeometry relative="1" as="geometry">
                        <mxPoint x="240" y="600" as="sourcePoint"/>
                        <mxPoint x="306" y="600.6999999999998" as="targetPoint"/>
                    </mxGeometry>
                </mxCell>
                <mxCell id="nUl7GOcgF2RR15ybSp7t-22" style="edgeStyle=orthogonalEdgeStyle;rounded=0;html=1;exitX=1;exitY=0.5;exitDx=0;exitDy=0;shadow=0;fontSize=32;startArrow=none;startFill=0;endArrow=none;endFill=0;" parent="V3qcS_R1Ii-6UE6DMm6K-1" source="NmEzGCYF4zkgjlNW1z2w-26" edge="1">
                    <mxGeometry relative="1" as="geometry">
                        <mxPoint x="686" y="624.8888888888888" as="targetPoint"/>
                    </mxGeometry>
                </mxCell>
                <mxCell id="NmEzGCYF4zkgjlNW1z2w-26" value="Clock_Serivcer&lt;br&gt;(LCD)" style="rounded=0;whiteSpace=wrap;html=1;" parent="V3qcS_R1Ii-6UE6DMm6K-1" vertex="1">
                    <mxGeometry x="573" y="610" width="100" height="30" as="geometry"/>
                </mxCell>
                <mxCell id="NmEzGCYF4zkgjlNW1z2w-27" style="edgeStyle=orthogonalEdgeStyle;rounded=0;jumpStyle=none;html=1;exitX=0.75;exitY=0;exitDx=0;exitDy=0;entryX=1;entryY=0;entryDx=0;entryDy=0;startArrow=none;startFill=0;endArrow=none;endFill=0;strokeColor=default;strokeWidth=1;" parent="V3qcS_R1Ii-6UE6DMm6K-1" source="NmEzGCYF4zkgjlNW1z2w-26" target="NmEzGCYF4zkgjlNW1z2w-26" edge="1">
                    <mxGeometry relative="1" as="geometry"/>
                </mxCell>
                <mxCell id="nUl7GOcgF2RR15ybSp7t-24" style="edgeStyle=orthogonalEdgeStyle;rounded=0;html=1;exitX=1;exitY=0.5;exitDx=0;exitDy=0;shadow=0;fontSize=32;startArrow=none;startFill=0;endArrow=none;endFill=0;" parent="V3qcS_R1Ii-6UE6DMm6K-1" source="NmEzGCYF4zkgjlNW1z2w-29" edge="1">
                    <mxGeometry relative="1" as="geometry">
                        <mxPoint x="686" y="664.8888888888888" as="targetPoint"/>
                    </mxGeometry>
                </mxCell>
                <mxCell id="NmEzGCYF4zkgjlNW1z2w-29" value="TH_Serivcer" style="rounded=0;whiteSpace=wrap;html=1;" parent="V3qcS_R1Ii-6UE6DMm6K-1" vertex="1">
                    <mxGeometry x="576" y="650" width="84" height="30" as="geometry"/>
                </mxCell>
                <mxCell id="NmEzGCYF4zkgjlNW1z2w-30" style="edgeStyle=orthogonalEdgeStyle;rounded=0;jumpStyle=none;html=1;exitX=0.75;exitY=0;exitDx=0;exitDy=0;entryX=1;entryY=0;entryDx=0;entryDy=0;startArrow=none;startFill=0;endArrow=none;endFill=0;strokeColor=default;strokeWidth=1;" parent="V3qcS_R1Ii-6UE6DMm6K-1" source="NmEzGCYF4zkgjlNW1z2w-29" target="NmEzGCYF4zkgjlNW1z2w-29" edge="1">
                    <mxGeometry relative="1" as="geometry"/>
                </mxCell>
                <mxCell id="nUl7GOcgF2RR15ybSp7t-26" style="edgeStyle=orthogonalEdgeStyle;rounded=0;html=1;exitX=0;exitY=0.5;exitDx=0;exitDy=0;shadow=0;fontSize=32;startArrow=none;startFill=0;endArrow=none;endFill=0;" parent="V3qcS_R1Ii-6UE6DMm6K-1" source="NmEzGCYF4zkgjlNW1z2w-32" edge="1">
                    <mxGeometry relative="1" as="geometry">
                        <mxPoint x="686" y="706.3703703703702" as="targetPoint"/>
                    </mxGeometry>
                </mxCell>
                <mxCell id="NmEzGCYF4zkgjlNW1z2w-32" value="UltraSonic_Serivcer" style="rounded=0;whiteSpace=wrap;html=1;" parent="V3qcS_R1Ii-6UE6DMm6K-1" vertex="1">
                    <mxGeometry x="703" y="691" width="120" height="30" as="geometry"/>
                </mxCell>
                <mxCell id="NmEzGCYF4zkgjlNW1z2w-33" style="edgeStyle=orthogonalEdgeStyle;rounded=0;jumpStyle=none;html=1;exitX=0.75;exitY=0;exitDx=0;exitDy=0;entryX=1;entryY=0;entryDx=0;entryDy=0;startArrow=none;startFill=0;endArrow=none;endFill=0;strokeColor=default;strokeWidth=1;" parent="V3qcS_R1Ii-6UE6DMm6K-1" source="NmEzGCYF4zkgjlNW1z2w-32" target="NmEzGCYF4zkgjlNW1z2w-32" edge="1">
                    <mxGeometry relative="1" as="geometry"/>
                </mxCell>
                <mxCell id="nUl7GOcgF2RR15ybSp7t-25" style="edgeStyle=orthogonalEdgeStyle;rounded=0;html=1;exitX=0;exitY=0.5;exitDx=0;exitDy=0;shadow=0;fontSize=32;startArrow=none;startFill=0;endArrow=none;endFill=0;" parent="V3qcS_R1Ii-6UE6DMm6K-1" source="NmEzGCYF4zkgjlNW1z2w-35" edge="1">
                    <mxGeometry relative="1" as="geometry">
                        <mxPoint x="686" y="666.3703703703703" as="targetPoint"/>
                    </mxGeometry>
                </mxCell>
                <mxCell id="NmEzGCYF4zkgjlNW1z2w-35" value="Motor_Serivcer" style="rounded=0;whiteSpace=wrap;html=1;" parent="V3qcS_R1Ii-6UE6DMm6K-1" vertex="1">
                    <mxGeometry x="703" y="650" width="84" height="30" as="geometry"/>
                </mxCell>
                <mxCell id="NmEzGCYF4zkgjlNW1z2w-36" style="edgeStyle=orthogonalEdgeStyle;rounded=0;jumpStyle=none;html=1;exitX=0.75;exitY=0;exitDx=0;exitDy=0;entryX=1;entryY=0;entryDx=0;entryDy=0;startArrow=none;startFill=0;endArrow=none;endFill=0;strokeColor=default;strokeWidth=1;" parent="V3qcS_R1Ii-6UE6DMm6K-1" source="NmEzGCYF4zkgjlNW1z2w-35" target="NmEzGCYF4zkgjlNW1z2w-35" edge="1">
                    <mxGeometry relative="1" as="geometry"/>
                </mxCell>
                <mxCell id="nUl7GOcgF2RR15ybSp7t-23" style="edgeStyle=orthogonalEdgeStyle;rounded=0;html=1;exitX=0;exitY=0.5;exitDx=0;exitDy=0;shadow=0;fontSize=32;startArrow=none;startFill=0;endArrow=none;endFill=0;" parent="V3qcS_R1Ii-6UE6DMm6K-1" source="NmEzGCYF4zkgjlNW1z2w-38" edge="1">
                    <mxGeometry relative="1" as="geometry">
                        <mxPoint x="686" y="624.8888888888888" as="targetPoint"/>
                    </mxGeometry>
                </mxCell>
                <mxCell id="NmEzGCYF4zkgjlNW1z2w-38" value="Servicer&lt;br&gt;(Led_Serivcer)" style="rounded=0;whiteSpace=wrap;html=1;" parent="V3qcS_R1Ii-6UE6DMm6K-1" vertex="1">
                    <mxGeometry x="702" y="610" width="84" height="30" as="geometry"/>
                </mxCell>
                <mxCell id="NmEzGCYF4zkgjlNW1z2w-39" style="edgeStyle=orthogonalEdgeStyle;rounded=0;jumpStyle=none;html=1;exitX=0.75;exitY=0;exitDx=0;exitDy=0;entryX=1;entryY=0;entryDx=0;entryDy=0;startArrow=none;startFill=0;endArrow=none;endFill=0;strokeColor=default;strokeWidth=1;" parent="V3qcS_R1Ii-6UE6DMm6K-1" source="NmEzGCYF4zkgjlNW1z2w-38" target="NmEzGCYF4zkgjlNW1z2w-38" edge="1">
                    <mxGeometry relative="1" as="geometry"/>
                </mxCell>
                <mxCell id="NmEzGCYF4zkgjlNW1z2w-45" value="LCD" style="rounded=0;whiteSpace=wrap;html=1;" parent="V3qcS_R1Ii-6UE6DMm6K-1" vertex="1">
                    <mxGeometry x="347.8" y="910" width="70" height="40" as="geometry"/>
                </mxCell>
                <mxCell id="NmEzGCYF4zkgjlNW1z2w-46" value="LED" style="rounded=0;whiteSpace=wrap;html=1;" parent="V3qcS_R1Ii-6UE6DMm6K-1" vertex="1">
                    <mxGeometry x="457" y="910" width="70" height="40" as="geometry"/>
                </mxCell>
                <mxCell id="NmEzGCYF4zkgjlNW1z2w-47" value="Motor" style="rounded=0;whiteSpace=wrap;html=1;" parent="V3qcS_R1Ii-6UE6DMm6K-1" vertex="1">
                    <mxGeometry x="583" y="910" width="70" height="40" as="geometry"/>
                </mxCell>
                <mxCell id="nUl7GOcgF2RR15ybSp7t-9" style="edgeStyle=orthogonalEdgeStyle;rounded=0;html=1;exitX=0.5;exitY=1;exitDx=0;exitDy=0;entryX=0.5;entryY=0;entryDx=0;entryDy=0;fontSize=32;endArrow=none;endFill=0;" parent="V3qcS_R1Ii-6UE6DMm6K-1" source="NmEzGCYF4zkgjlNW1z2w-49" target="NmEzGCYF4zkgjlNW1z2w-55" edge="1">
                    <mxGeometry relative="1" as="geometry"/>
                </mxCell>
                <mxCell id="NmEzGCYF4zkgjlNW1z2w-49" value="Clock_Viewer&lt;br&gt;(LCD)" style="rounded=0;whiteSpace=wrap;html=1;" parent="V3qcS_R1Ii-6UE6DMm6K-1" vertex="1">
                    <mxGeometry x="333" y="810" width="100" height="30" as="geometry"/>
                </mxCell>
                <mxCell id="NmEzGCYF4zkgjlNW1z2w-50" style="edgeStyle=orthogonalEdgeStyle;rounded=0;jumpStyle=none;html=1;exitX=0.75;exitY=0;exitDx=0;exitDy=0;entryX=1;entryY=0;entryDx=0;entryDy=0;startArrow=none;startFill=0;endArrow=none;endFill=0;strokeColor=default;strokeWidth=1;" parent="V3qcS_R1Ii-6UE6DMm6K-1" source="NmEzGCYF4zkgjlNW1z2w-49" target="NmEzGCYF4zkgjlNW1z2w-49" edge="1">
                    <mxGeometry relative="1" as="geometry"/>
                </mxCell>
                <mxCell id="NmEzGCYF4zkgjlNW1z2w-53" style="edgeStyle=orthogonalEdgeStyle;rounded=0;jumpStyle=none;html=1;exitX=0.75;exitY=0;exitDx=0;exitDy=0;entryX=1;entryY=0;entryDx=0;entryDy=0;startArrow=none;startFill=0;endArrow=none;endFill=0;strokeColor=default;strokeWidth=1;" parent="V3qcS_R1Ii-6UE6DMm6K-1" source="NmEzGCYF4zkgjlNW1z2w-52" target="NmEzGCYF4zkgjlNW1z2w-52" edge="1">
                    <mxGeometry relative="1" as="geometry"/>
                </mxCell>
                <mxCell id="nUl7GOcgF2RR15ybSp7t-8" style="edgeStyle=orthogonalEdgeStyle;rounded=0;html=1;exitX=0.5;exitY=1;exitDx=0;exitDy=0;entryX=0.5;entryY=0;entryDx=0;entryDy=0;fontSize=32;endArrow=none;endFill=0;" parent="V3qcS_R1Ii-6UE6DMm6K-1" source="NmEzGCYF4zkgjlNW1z2w-52" target="NmEzGCYF4zkgjlNW1z2w-49" edge="1">
                    <mxGeometry relative="1" as="geometry"/>
                </mxCell>
                <mxCell id="NmEzGCYF4zkgjlNW1z2w-52" value="TH_Viewer" style="rounded=0;whiteSpace=wrap;html=1;" parent="V3qcS_R1Ii-6UE6DMm6K-1" vertex="1">
                    <mxGeometry x="341" y="770" width="84" height="30" as="geometry"/>
                </mxCell>
                <mxCell id="NmEzGCYF4zkgjlNW1z2w-56" style="edgeStyle=orthogonalEdgeStyle;rounded=0;jumpStyle=none;html=1;exitX=0.75;exitY=0;exitDx=0;exitDy=0;entryX=1;entryY=0;entryDx=0;entryDy=0;startArrow=none;startFill=0;endArrow=none;endFill=0;strokeColor=default;strokeWidth=1;" parent="V3qcS_R1Ii-6UE6DMm6K-1" source="NmEzGCYF4zkgjlNW1z2w-55" target="NmEzGCYF4zkgjlNW1z2w-55" edge="1">
                    <mxGeometry relative="1" as="geometry"/>
                </mxCell>
                <mxCell id="nUl7GOcgF2RR15ybSp7t-10" style="edgeStyle=orthogonalEdgeStyle;rounded=0;html=1;exitX=0.5;exitY=1;exitDx=0;exitDy=0;fontSize=32;endArrow=classicThin;endFill=1;startArrow=none;startFill=0;entryX=0.5;entryY=0;entryDx=0;entryDy=0;" parent="V3qcS_R1Ii-6UE6DMm6K-1" source="NmEzGCYF4zkgjlNW1z2w-55" target="NmEzGCYF4zkgjlNW1z2w-45" edge="1">
                    <mxGeometry relative="1" as="geometry">
                        <mxPoint x="356" y="900" as="targetPoint"/>
                    </mxGeometry>
                </mxCell>
                <mxCell id="NmEzGCYF4zkgjlNW1z2w-55" value="UltraSonic_Viewer" style="rounded=0;whiteSpace=wrap;html=1;" parent="V3qcS_R1Ii-6UE6DMm6K-1" vertex="1">
                    <mxGeometry x="323" y="850" width="120" height="30" as="geometry"/>
                </mxCell>
                <mxCell id="nUl7GOcgF2RR15ybSp7t-16" style="edgeStyle=orthogonalEdgeStyle;rounded=0;html=1;exitX=0.5;exitY=1;exitDx=0;exitDy=0;entryX=0.5;entryY=0;entryDx=0;entryDy=0;shadow=0;fontSize=32;startArrow=none;startFill=0;endArrow=classic;endFill=1;" parent="V3qcS_R1Ii-6UE6DMm6K-1" source="NmEzGCYF4zkgjlNW1z2w-58" target="NmEzGCYF4zkgjlNW1z2w-47" edge="1">
                    <mxGeometry relative="1" as="geometry"/>
                </mxCell>
                <mxCell id="NmEzGCYF4zkgjlNW1z2w-58" value="Motor_Viewer" style="rounded=0;whiteSpace=wrap;html=1;" parent="V3qcS_R1Ii-6UE6DMm6K-1" vertex="1">
                    <mxGeometry x="576" y="800" width="84" height="30" as="geometry"/>
                </mxCell>
                <mxCell id="NmEzGCYF4zkgjlNW1z2w-59" style="edgeStyle=orthogonalEdgeStyle;rounded=0;jumpStyle=none;html=1;exitX=0.75;exitY=0;exitDx=0;exitDy=0;entryX=1;entryY=0;entryDx=0;entryDy=0;startArrow=none;startFill=0;endArrow=none;endFill=0;strokeColor=default;strokeWidth=1;" parent="V3qcS_R1Ii-6UE6DMm6K-1" source="NmEzGCYF4zkgjlNW1z2w-58" target="NmEzGCYF4zkgjlNW1z2w-58" edge="1">
                    <mxGeometry relative="1" as="geometry"/>
                </mxCell>
                <mxCell id="nUl7GOcgF2RR15ybSp7t-13" style="edgeStyle=orthogonalEdgeStyle;rounded=0;html=1;exitX=0.414;exitY=1.05;exitDx=0;exitDy=0;shadow=0;fontSize=32;startArrow=none;startFill=0;endArrow=classic;endFill=1;entryX=0.5;entryY=0;entryDx=0;entryDy=0;exitPerimeter=0;" parent="V3qcS_R1Ii-6UE6DMm6K-1" source="NmEzGCYF4zkgjlNW1z2w-61" target="NmEzGCYF4zkgjlNW1z2w-46" edge="1">
                    <mxGeometry relative="1" as="geometry">
                        <mxPoint x="492" y="800" as="sourcePoint"/>
                        <mxPoint x="492" y="900" as="targetPoint"/>
                    </mxGeometry>
                </mxCell>
                <mxCell id="NmEzGCYF4zkgjlNW1z2w-61" value="Viewer&lt;br&gt;(Led_Viewer)" style="rounded=0;whiteSpace=wrap;html=1;" parent="V3qcS_R1Ii-6UE6DMm6K-1" vertex="1">
                    <mxGeometry x="457" y="805" width="84" height="30" as="geometry"/>
                </mxCell>
                <mxCell id="NmEzGCYF4zkgjlNW1z2w-62" style="edgeStyle=orthogonalEdgeStyle;rounded=0;jumpStyle=none;html=1;exitX=0.75;exitY=0;exitDx=0;exitDy=0;entryX=1;entryY=0;entryDx=0;entryDy=0;startArrow=none;startFill=0;endArrow=none;endFill=0;strokeColor=default;strokeWidth=1;" parent="V3qcS_R1Ii-6UE6DMm6K-1" source="NmEzGCYF4zkgjlNW1z2w-61" target="NmEzGCYF4zkgjlNW1z2w-61" edge="1">
                    <mxGeometry relative="1" as="geometry"/>
                </mxCell>
                <mxCell id="DAVcD55UxOFXUQFRgLMg-0" style="edgeStyle=orthogonalEdgeStyle;html=1;entryX=0.5;entryY=0;entryDx=0;entryDy=0;fontSize=28;" parent="V3qcS_R1Ii-6UE6DMm6K-1" source="NmEzGCYF4zkgjlNW1z2w-63" target="NmEzGCYF4zkgjlNW1z2w-0" edge="1">
                    <mxGeometry relative="1" as="geometry">
                        <Array as="points">
                            <mxPoint x="180" y="760"/>
                            <mxPoint x="61" y="760"/>
                        </Array>
                    </mxGeometry>
                </mxCell>
                <mxCell id="DAVcD55UxOFXUQFRgLMg-1" style="edgeStyle=orthogonalEdgeStyle;html=1;entryX=0.5;entryY=0;entryDx=0;entryDy=0;fontSize=28;" parent="V3qcS_R1Ii-6UE6DMm6K-1" source="NmEzGCYF4zkgjlNW1z2w-63" target="NmEzGCYF4zkgjlNW1z2w-2" edge="1">
                    <mxGeometry relative="1" as="geometry">
                        <Array as="points">
                            <mxPoint x="180" y="760"/>
                            <mxPoint x="125" y="760"/>
                        </Array>
                    </mxGeometry>
                </mxCell>
                <mxCell id="DAVcD55UxOFXUQFRgLMg-2" style="edgeStyle=orthogonalEdgeStyle;html=1;entryX=0.5;entryY=0;entryDx=0;entryDy=0;fontSize=28;" parent="V3qcS_R1Ii-6UE6DMm6K-1" source="NmEzGCYF4zkgjlNW1z2w-63" target="NmEzGCYF4zkgjlNW1z2w-11" edge="1">
                    <mxGeometry relative="1" as="geometry">
                        <Array as="points">
                            <mxPoint x="180" y="760"/>
                            <mxPoint x="275" y="760"/>
                        </Array>
                    </mxGeometry>
                </mxCell>
                <mxCell id="DAVcD55UxOFXUQFRgLMg-3" style="edgeStyle=orthogonalEdgeStyle;html=1;entryX=0.5;entryY=0;entryDx=0;entryDy=0;fontSize=28;" parent="V3qcS_R1Ii-6UE6DMm6K-1" source="NmEzGCYF4zkgjlNW1z2w-63" target="NmEzGCYF4zkgjlNW1z2w-10" edge="1">
                    <mxGeometry relative="1" as="geometry">
                        <Array as="points">
                            <mxPoint x="180" y="770"/>
                            <mxPoint x="197" y="770"/>
                        </Array>
                    </mxGeometry>
                </mxCell>
                <mxCell id="NmEzGCYF4zkgjlNW1z2w-63" value="Listener" style="swimlane;fontStyle=1;childLayout=stackLayout;horizontal=1;startSize=30;horizontalStack=0;resizeParent=1;resizeParentMax=0;resizeLast=0;collapsible=1;marginBottom=0;fontSize=20;" parent="V3qcS_R1Ii-6UE6DMm6K-1" vertex="1">
                    <mxGeometry x="110" y="680" width="140" height="60" as="geometry"/>
                </mxCell>
                <mxCell id="NmEzGCYF4zkgjlNW1z2w-64" value="void checkEvent();" style="text;strokeColor=none;fillColor=none;align=center;verticalAlign=middle;spacingLeft=4;spacingRight=4;overflow=hidden;points=[[0,0.5],[1,0.5]];portConstraint=eastwest;rotatable=0;fontSize=15;" parent="NmEzGCYF4zkgjlNW1z2w-63" vertex="1">
                    <mxGeometry y="30" width="140" height="30" as="geometry"/>
                </mxCell>
                <mxCell id="158Rcfe5oIILvhh3xk90-0" value="Controller" style="swimlane;fontStyle=1;childLayout=stackLayout;horizontal=1;startSize=30;horizontalStack=0;resizeParent=1;resizeParentMax=0;resizeLast=0;collapsible=1;marginBottom=0;fontSize=22;verticalAlign=middle;" parent="V3qcS_R1Ii-6UE6DMm6K-1" vertex="1">
                    <mxGeometry x="97" y="570" width="166" height="60" as="geometry"/>
                </mxCell>
                <mxCell id="158Rcfe5oIILvhh3xk90-1" value="void updateEvent()" style="swimlane;fontStyle=0;childLayout=stackLayout;horizontal=1;startSize=30;horizontalStack=0;resizeParent=1;resizeParentMax=0;resizeLast=0;collapsible=1;marginBottom=0;fontSize=19;" parent="158Rcfe5oIILvhh3xk90-0" vertex="1">
                    <mxGeometry y="30" width="166" height="30" as="geometry">
                        <mxRectangle y="30" width="430" height="30" as="alternateBounds"/>
                    </mxGeometry>
                </mxCell>
                <mxCell id="pf7RTdEOpmCBhIZQ5wkJ-0" value="Servier" style="swimlane;fontStyle=1;childLayout=stackLayout;horizontal=1;startSize=30;horizontalStack=0;resizeParent=1;resizeParentMax=0;resizeLast=0;collapsible=1;marginBottom=0;fontSize=21;verticalAlign=middle;" parent="V3qcS_R1Ii-6UE6DMm6K-1" vertex="1">
                    <mxGeometry x="310" y="570" width="146" height="60" as="geometry"/>
                </mxCell>
                <mxCell id="pf7RTdEOpmCBhIZQ5wkJ-1" value="void update();" style="swimlane;fontStyle=0;childLayout=stackLayout;horizontal=1;startSize=30;horizontalStack=0;resizeParent=1;resizeParentMax=0;resizeLast=0;collapsible=1;marginBottom=0;fontSize=20;" parent="pf7RTdEOpmCBhIZQ5wkJ-0" vertex="1">
                    <mxGeometry y="30" width="146" height="30" as="geometry">
                        <mxRectangle y="30" width="430" height="30" as="alternateBounds"/>
                    </mxGeometry>
                </mxCell>
                <mxCell id="m1z8hw1U22jFq9mAGPyh-0" value="Viewer" style="swimlane;fontStyle=1;childLayout=stackLayout;horizontal=1;startSize=30;horizontalStack=0;resizeParent=1;resizeParentMax=0;resizeLast=0;collapsible=1;marginBottom=0;fontSize=21;verticalAlign=middle;" parent="V3qcS_R1Ii-6UE6DMm6K-1" vertex="1">
                    <mxGeometry x="350.8" y="679" width="180" height="60" as="geometry"/>
                </mxCell>
                <mxCell id="m1z8hw1U22jFq9mAGPyh-1" value="void updateView();" style="swimlane;fontStyle=0;childLayout=stackLayout;horizontal=1;startSize=30;horizontalStack=0;resizeParent=1;resizeParentMax=0;resizeLast=0;collapsible=1;marginBottom=0;fontSize=19;" parent="m1z8hw1U22jFq9mAGPyh-0" vertex="1">
                    <mxGeometry y="30" width="180" height="30" as="geometry">
                        <mxRectangle y="30" width="430" height="30" as="alternateBounds"/>
                    </mxGeometry>
                </mxCell>
                <mxCell id="nUl7GOcgF2RR15ybSp7t-7" style="edgeStyle=orthogonalEdgeStyle;rounded=0;html=1;exitX=0.5;exitY=1;exitDx=0;exitDy=0;fontSize=32;endArrow=none;endFill=0;" parent="V3qcS_R1Ii-6UE6DMm6K-1" source="m1z8hw1U22jFq9mAGPyh-1" target="NmEzGCYF4zkgjlNW1z2w-52" edge="1">
                    <mxGeometry relative="1" as="geometry">
                        <Array as="points">
                            <mxPoint x="441" y="760"/>
                            <mxPoint x="383" y="760"/>
                        </Array>
                    </mxGeometry>
                </mxCell>
                <mxCell id="nUl7GOcgF2RR15ybSp7t-14" style="edgeStyle=orthogonalEdgeStyle;rounded=0;html=1;exitX=0.5;exitY=1;exitDx=0;exitDy=0;shadow=0;fontSize=32;startArrow=none;startFill=0;endArrow=none;endFill=0;" parent="V3qcS_R1Ii-6UE6DMm6K-1" target="NmEzGCYF4zkgjlNW1z2w-61" edge="1">
                    <mxGeometry relative="1" as="geometry">
                        <mxPoint x="441.79999999999995" y="739" as="sourcePoint"/>
                        <Array as="points">
                            <mxPoint x="442" y="760"/>
                            <mxPoint x="487" y="760"/>
                        </Array>
                    </mxGeometry>
                </mxCell>
                <mxCell id="nUl7GOcgF2RR15ybSp7t-15" style="edgeStyle=orthogonalEdgeStyle;rounded=0;html=1;exitX=0.5;exitY=1;exitDx=0;exitDy=0;shadow=0;fontSize=32;startArrow=none;startFill=0;endArrow=none;endFill=0;entryX=0.5;entryY=0;entryDx=0;entryDy=0;" parent="V3qcS_R1Ii-6UE6DMm6K-1" source="m1z8hw1U22jFq9mAGPyh-1" target="NmEzGCYF4zkgjlNW1z2w-58" edge="1">
                    <mxGeometry relative="1" as="geometry">
                        <mxPoint x="606" y="780.80810546875" as="targetPoint"/>
                        <Array as="points">
                            <mxPoint x="441" y="760"/>
                            <mxPoint x="618" y="760"/>
                        </Array>
                    </mxGeometry>
                </mxCell>
                <mxCell id="nUl7GOcgF2RR15ybSp7t-18" style="edgeStyle=orthogonalEdgeStyle;rounded=0;html=1;exitX=1;exitY=0;exitDx=0;exitDy=0;shadow=0;fontSize=32;startArrow=none;startFill=0;endArrow=classic;endFill=1;entryX=1;entryY=0.5;entryDx=0;entryDy=0;" parent="V3qcS_R1Ii-6UE6DMm6K-1" source="pf7RTdEOpmCBhIZQ5wkJ-1" target="m1z8hw1U22jFq9mAGPyh-0" edge="1">
                    <mxGeometry relative="1" as="geometry">
                        <mxPoint x="686" y="720" as="targetPoint"/>
                        <Array as="points">
                            <mxPoint x="456" y="590"/>
                            <mxPoint x="686" y="590"/>
                            <mxPoint x="686" y="709"/>
                        </Array>
                    </mxGeometry>
                </mxCell>
            </root>
        </mxGraphModel>
    </diagram>
</mxfile>